<svg width="540" height="445" fill="none" xmlns="http://www.w3.org/2000/svg"><path d="M274.498 414.224c104.979-1.369 188.486-88.698 188.486-193.47V37.702c0-2.6193-2.148-4.7028-4.713-4.7028H340.348c-2.624 0-4.712 2.143-4.712 4.7028v13.0964H213.001c-2.624 0-4.712 2.1431-4.712 4.7028V223.552H85.773c-2.6245 0-4.8315 2.143-4.7718 4.822.5965 25.002 6.084 48.814 15.4487 70.542 29.5851 68.578 98.2991 116.32 178.0481 115.308z" fill="#B680FF"/><path d="M339.871 84.0753l-219.085-63.101c-12.168-3.5122-24.2765 5.5958-24.2765 18.216v9.7628L352.695 110.982v-8.929c0-8.3935-4.712-15.6561-12.824-17.9777z" fill="#fff"/><path d="M343.45 340.765l-231.492 48.516c-7.933 1.667-15.3889-4.405-15.3889-12.501V39.1903c0-12.6202 12.1089-21.7282 24.2769-18.216l219.085 63.101c8.112 2.3216 13.719 9.7628 13.719 18.2157v226.033c-.06 6.012-4.295 11.251-10.2 12.441z" stroke="#B680FF" stroke-width="2" stroke-miterlimit="10" stroke-linecap="round" stroke-linejoin="round"/><path d="M232.386 324.038l-59.707 8.632v-88.758l42.946-.655 16.761 15.537v65.244z" fill="#fff" stroke="#B680FF" stroke-width="2" stroke-miterlimit="10" stroke-linecap="round" stroke-linejoin="round"/><path d="M215.625 243.256v16.192l16.761-.655-16.761-15.537z" fill="#fff" stroke="#B680FF" stroke-width="2" stroke-miterlimit="10" stroke-linecap="round" stroke-linejoin="round"/><path d="M201.25 259.746l6.442-.298" stroke="#B680FF" stroke-width="2" stroke-miterlimit="10" stroke-linecap="round" stroke-linejoin="round"/><path d="M182.581 260.52l14.196-.596" stroke="#000" stroke-width="2" stroke-miterlimit="10" stroke-linecap="round" stroke-linejoin="round"/><path d="M215.148 272.009l8.708-.476" stroke="#B680FF" stroke-width="2" stroke-miterlimit="10" stroke-linecap="round" stroke-linejoin="round"/><path d="M194.033 273.319l16.462-1.012" stroke="#000" stroke-width="2" stroke-miterlimit="10" stroke-linecap="round" stroke-linejoin="round"/><path d="M182.581 274.033l6.62-.417" stroke="#B680FF" stroke-width="2" stroke-miterlimit="10" stroke-linecap="round" stroke-linejoin="round"/><path d="M205.366 285.701l18.49-1.489" stroke="#000" stroke-width="2" stroke-miterlimit="10" stroke-linecap="round" stroke-linejoin="round"/><path d="M182.581 287.546l17.953-1.488M209.661 298.321l14.196-1.429" stroke="#B680FF" stroke-width="2" stroke-miterlimit="10" stroke-linecap="round" stroke-linejoin="round"/><path d="M182.581 301l21.89-2.143" stroke="#000" stroke-width="2" stroke-miterlimit="10" stroke-linecap="round" stroke-linejoin="round"/><path d="M195.941 312.906l27.915-3.334M182.581 314.513l8.112-.953" stroke="#B680FF" stroke-width="2" stroke-miterlimit="10" stroke-linecap="round" stroke-linejoin="round"/><path d="M164.985 252.722l-48.613 1.369v-65.185l34.715 2.084 13.898 12.679v49.053z" fill="#fff" stroke="#B680FF" stroke-width="2" stroke-miterlimit="10" stroke-linecap="round" stroke-linejoin="round"/><path d="M151.087 190.99v12.084l13.898.595-13.898-12.679z" fill="#fff" stroke="#B680FF" stroke-width="2" stroke-miterlimit="10" stroke-linecap="round" stroke-linejoin="round"/><path d="M138.621 202.3l6.024.238" stroke="#B680FF" stroke-width="2" stroke-miterlimit="10" stroke-linecap="round" stroke-linejoin="round"/><path d="M124.306 201.705l10.199.417M144.645 212.242l13.242.416" stroke="#000" stroke-width="2" stroke-miterlimit="10" stroke-linecap="round" stroke-linejoin="round"/><path d="M124.305 211.646l14.852.417M147.329 222.004l10.558.119" stroke="#B680FF" stroke-width="2" stroke-miterlimit="10" stroke-linecap="round" stroke-linejoin="round"/><path d="M133.193 221.766l10.856.179" stroke="#000" stroke-width="2" stroke-miterlimit="10" stroke-linecap="round" stroke-linejoin="round"/><path d="M124.305 221.588l5.07.119M143.035 231.589l14.852.059" stroke="#B680FF" stroke-width="2" stroke-miterlimit="10" stroke-linecap="round" stroke-linejoin="round"/><path d="M124.305 231.589h13.838M149.774 241.232l8.112-.059" stroke="#000" stroke-width="2" stroke-miterlimit="10" stroke-linecap="round" stroke-linejoin="round"/><path d="M124.305 241.53l21.414-.238" stroke="#B680FF" stroke-width="2" stroke-miterlimit="10" stroke-linecap="round" stroke-linejoin="round"/><path d="M301.16 322.728l-38.592 6.191v-64.411l27.617-1.488 10.975 11.192v48.516z" fill="#fff" stroke="#B680FF" stroke-width="2" stroke-miterlimit="10" stroke-linecap="round" stroke-linejoin="round"/><path d="M290.185 263.02v11.965l10.975-.773-10.975-11.192z" fill="#fff" stroke="#B680FF" stroke-width="2" stroke-miterlimit="10" stroke-linecap="round" stroke-linejoin="round"/><path d="M268.891 276.355l16.104-1.191M284.16 284.808l11.393-1.012M268.891 286.177l11.392-1.012M282.192 294.63l13.361-1.428" stroke="#B680FF" stroke-width="2" stroke-miterlimit="10" stroke-linecap="round" stroke-linejoin="round"/><path d="M268.891 296.059l8.052-.893M292.869 302.905l4.175-.476" stroke="#000" stroke-width="2" stroke-miterlimit="10" stroke-linecap="round" stroke-linejoin="round"/><path d="M268.891 305.881l19.624-2.441M276.943 314.632l18.61-2.619" stroke="#B680FF" stroke-width="2" stroke-miterlimit="10" stroke-linecap="round" stroke-linejoin="round"/><path d="M268.891 315.763l4.294-.655" stroke="#000" stroke-width="2" stroke-miterlimit="10" stroke-linecap="round" stroke-linejoin="round"/><path d="M339.096 248.138l-34.417 1.012v-61.672l24.575 2.024 9.842 12.084v46.552z" fill="#fff" stroke="#B680FF" stroke-width="2" stroke-miterlimit="10" stroke-linecap="round" stroke-linejoin="round"/><path d="M329.254 189.502v11.489l9.842.595-9.842-12.084z" fill="#fff" stroke="#B680FF" stroke-width="2" stroke-miterlimit="10" stroke-linecap="round" stroke-linejoin="round"/><path d="M310.287 199.622l8.53.535M325.079 209.682l9.006.417" stroke="#B680FF" stroke-width="2" stroke-miterlimit="10" stroke-linecap="round" stroke-linejoin="round"/><path d="M318.815 209.444l3.042.119" stroke="#000" stroke-width="2" stroke-miterlimit="10" stroke-linecap="round" stroke-linejoin="round"/><path d="M310.286 209.027l4.653.238" stroke="#B680FF" stroke-width="2" stroke-miterlimit="10" stroke-linecap="round" stroke-linejoin="round"/><path d="M330.864 219.028l3.221.06" stroke="#000" stroke-width="2" stroke-miterlimit="10" stroke-linecap="round" stroke-linejoin="round"/><path d="M319.83 218.73l7.098.179" stroke="#B680FF" stroke-width="2" stroke-miterlimit="10" stroke-linecap="round" stroke-linejoin="round"/><path d="M310.286 218.492l5.189.119M322.454 228.017l11.631.119" stroke="#000" stroke-width="2" stroke-miterlimit="10" stroke-linecap="round" stroke-linejoin="round"/><path d="M310.286 227.898l7.695.059M320.367 237.244l13.719-.119" stroke="#B680FF" stroke-width="2" stroke-miterlimit="10" stroke-linecap="round" stroke-linejoin="round"/><path d="M310.286 237.303h5.726" stroke="#000" stroke-width="2" stroke-miterlimit="10" stroke-linecap="round" stroke-linejoin="round"/><path d="M293.644 223.016l-66.626.119V114.018l48.195 7.918 18.431 22.145v78.935z" fill="#fff" stroke="#B680FF" stroke-width="2" stroke-miterlimit="10" stroke-linecap="round" stroke-linejoin="round"/><path d="M275.213 121.936v19.704l18.431 2.44-18.431-22.144z" fill="#fff" stroke="#B680FF" stroke-width="2" stroke-miterlimit="10" stroke-linecap="round" stroke-linejoin="round"/><path d="M238.292 136.342l20.16 2.5M270.322 155.213l13.957 1.428" stroke="#000" stroke-width="2" stroke-miterlimit="10" stroke-linecap="round" stroke-linejoin="round"/><path d="M238.292 151.939l25.35 2.619M261.256 169.381l23.024 1.726" stroke="#B680FF" stroke-width="2" stroke-miterlimit="10" stroke-linecap="round" stroke-linejoin="round"/><path d="M238.292 167.595l18.311 1.428M271.992 184.977l12.288.655" stroke="#000" stroke-width="2" stroke-miterlimit="10" stroke-linecap="round" stroke-linejoin="round"/><path d="M238.292 183.191l28.809 1.548M250.102 199.145l34.178 1.012" stroke="#B680FF" stroke-width="2" stroke-miterlimit="10" stroke-linecap="round" stroke-linejoin="round"/><path d="M238.292 198.848l7.813.178" stroke="#000" stroke-width="2" stroke-miterlimit="10" stroke-linecap="round" stroke-linejoin="round"/><path d="M284.28 215.575h-48.136" stroke="#B680FF" stroke-width="2" stroke-miterlimit="10" stroke-linecap="round" stroke-linejoin="round"/><path d="M127.132 45.7538c2.853-1.8323 3.201-6.3661.777-10.1264-2.424-3.7604-6.703-5.3233-9.556-3.491-2.854 1.8324-3.202 6.3661-.778 10.1265 2.424 3.7603 6.703 5.3233 9.557 3.4909z" fill="#000"/><path d="M149.156 51.907c2.853-1.8323 3.201-6.3661.777-10.1264-2.424-3.7604-6.703-5.3233-9.556-3.491-2.854 1.8324-3.202 6.3661-.778 10.1265 2.425 3.7603 6.703 5.3233 9.557 3.4909zM171.23 58.0275c2.854-1.8323 3.202-6.3661.778-10.1264-2.424-3.7604-6.703-5.3233-9.557-3.491-2.853 1.8324-3.201 6.3661-.777 10.1265 2.424 3.7603 6.703 5.3233 9.556 3.4909z" fill="#B680FF"/><path d="M224.394 50.7985l115.477 33.2769c8.112 2.3216 13.719 9.7628 13.719 18.2156v8.93" stroke="#B680FF" stroke-width="2" stroke-miterlimit="10" stroke-linecap="round" stroke-linejoin="round"/><path d="M96.5691 299.214v-75.602" stroke="#fff" stroke-width="2" stroke-miterlimit="10" stroke-linecap="round" stroke-linejoin="round"/><path d="M96.5691 48.9531L208.289 76.0388M208.289 76.0388L353.59 111.161" stroke="#B680FF" stroke-width="2" stroke-miterlimit="10" stroke-linecap="round" stroke-linejoin="round"/><path d="M351.98 107.887v220.437c0 6.012-4.235 11.251-10.14 12.501l-180.613 38.158" stroke="#fff" stroke-width="2" stroke-miterlimit="10" stroke-linecap="round" stroke-linejoin="round"/><path d="M425.286 335.884l-25.887-3.215-54.637-3.75-4.891 7.977c.239 7.917 1.014 17.025 2.863 27.026 2.326 12.739 5.786 23.633 9.246 32.503 29.227-13.692 54.338-34.706 73.306-60.541z" fill="#fff"/><path d="M365.4 368.922l4.235 3.989c1.909 1.786 3.162 4.107 3.579 6.667l.716 4.405" stroke="#B680FF" stroke-width="2" stroke-miterlimit="10" stroke-linecap="round" stroke-linejoin="round"/><path d="M253.084 104.851c-3.042.119-16.224 3.155-22.368 6.608-.358.178-.537.595-.477 1.012 1.372 8.453 28.929-2.024 31.195 0 2.864 2.262-1.073 21.668 6.681 20.418 2.028-1.25 3.102-19.645 7.516-19.645 4.056.417 13.182 5.953 15.21 7.561h6.263c.596.059 6.978-6.072 6.978-6.072-.656-4.346-1.312-8.692-1.908-13.037-2.804-1.8456-5.19-5.1793-7.993-7.0247-7.337-4.048-33.343-13.6917-53.504-12.8583-.775.0595-1.551.2977-2.147.7739-3.937 3.155 10.856 7.0244 14.077 7.2626" fill="#B680FF"/><path d="M230.239 112.471c1.372 8.453 28.929-2.024 31.195 0 2.864 2.262-1.073 21.668 6.681 20.418.716-.417 1.909-5.774 1.909-5.774-6.502 1.369-.418-17.264-8.351-17.74-8.53.298-28.75 5.894-30.957 2.024-.358.298-.537.715-.477 1.072z" fill="#fff"/><path d="M242.824 106.994c-11.81 2.262-16.999 2.5-17.476.536-.776-3.036 8.41-7.025 27.258-11.787l1.73-.3572v11.5482" fill="#B680FF"/><path d="M240.439 99.0766c-8.828.4167-12.705-.4763-12.705-2.6788 0-1.905 8.708-5.2981 27.736-6.8459l-2.267 10.1795" fill="#B680FF"/><path d="M262.21 86.8731c-1.193 1.7263-2.744 4.3456-3.758 7.7983-1.312 4.2861-1.253 7.9766-1.074 10.2986" stroke="#000" stroke-width="2" stroke-miterlimit="10" stroke-linecap="round" stroke-linejoin="round"/><path d="M252.547 89.8495c-3.281-.2381-18.014-4.1075-14.077-7.2625.596-.4763 1.372-.7144 2.147-.7739 20.698-1.3692 52.967 12.5606 63.286 16.4896M297.044 120.864h-6.263c-2.028-1.607-11.154-7.143-15.21-7.56-4.414 0-5.488 18.395-7.516 19.645-7.754 1.25-3.817-18.157-6.68-20.419-2.267-2.024-29.824 8.453-31.196 0-.059-.416.12-.833.477-1.012 6.144-3.512 19.326-6.488 22.368-6.608" stroke="#000" stroke-width="2" stroke-miterlimit="10" stroke-linecap="round" stroke-linejoin="round"/><path d="M252.547 95.743c-18.849 4.703-27.975 8.751-27.259 11.787.477 1.905 5.726 1.726 17.477-.536" stroke="#000" stroke-width="2" stroke-miterlimit="10" stroke-linecap="round" stroke-linejoin="round"/><path d="M255.47 89.6113c-19.028 1.5478-27.736 4.941-27.736 6.8459 0 2.2026 3.877 3.0955 12.705 2.6788" stroke="#000" stroke-width="2" stroke-miterlimit="10" stroke-linecap="round" stroke-linejoin="round"/><path d="M339.871 336.896c-5.249-45.242-5.309-102.271 21.831-138.406-4.772-11.965-14.793-32.622-34.954-52.088-12.466-12.025-26.602-21.073-37.279-26.49 0 0 11.392-2.977 4.652-25.1811 13.719 5.8931 36.445 14.8821 58.753 34.8241 23.859 21.371 35.431 44.826 40.68 57.625l34.953 14.823c-.418 21.371-.895 42.742-1.312 64.113-1.551 6.191-2.923 12.798-3.997 19.882-1.908 12.74-5.07 34.587 2.148 50.005-3.52 3.512-17.239 16.43-39.01 17.918-26.185 1.667-43.602-14.287-46.465-17.025z" fill="#000"/><path d="M427.075 266.056c.418-21.371.895-42.742 1.313-64.113l-34.954-14.823c-5.249-12.799-16.82-36.253-40.679-57.624-22.249-19.942-44.796-30.5386-58.753-34.8247 4.593 9.2267 4.473 26.1337-3.281 26.1337 10.677 5.417 23.442 13.513 35.968 25.538 20.16 19.466 30.181 40.122 34.953 52.088-20.28 27.026-24.813 67.923-23.62 105.724" stroke="#000" stroke-width="2" stroke-miterlimit="10" stroke-linecap="round" stroke-linejoin="round"/><path d="M298.177 126.639c7.754 1.428 13.123-15.716 8.351-28.5148" stroke="#B680FF" stroke-width="2" stroke-miterlimit="10" stroke-linecap="round" stroke-linejoin="round"/><path d="M392.062 180.453l1.372 9.941c-5.01 9.763-16.821 16.669-13.421 25.538 2.088 5.299 23.74 5.358 48.374-13.989-5.249-6.429-5.427-26.55-5.07-31.312-.775-4.465-1.55-8.93-2.326-13.394" fill="#B680FF"/><path d="M380.013 215.933c.716 2.083 4.474 3.393 10.319 3.036-.477-17.8 10.618-23.991 7.635-41.016-.417-.357.06-1.191-.417-1.548l-5.488 4.048 1.372 8.81c-.358 7.442-16.821 16.55-13.421 26.67z" fill="#fff"/><path d="M392.062 180.453l1.372 8.81c-.358 7.501-16.82 16.609-13.361 26.729 1.849 5.417 23.74 5.358 48.374-13.989-5.249-6.429-5.428-26.55-5.07-31.313-.775-4.464-1.551-8.929-2.326-13.394" stroke="#000" stroke-width="2" stroke-miterlimit="10" stroke-linecap="round" stroke-linejoin="round"/><path d="M377.866 124.734c-12.288 25.121-9.007 50.362 1.252 55.719 8.291 4.286 20.519-3.274 23.74-5.298 5.428-5.834 10.856-11.608 16.343-17.442l-14.315-36.848-27.02 3.869z" fill="#B680FF"/><path d="M377.866 124.734c-12.288 25.121-9.007 50.361 1.252 55.719 1.313.655 2.684 1.072 4.116 1.191-13.898-8.215-4.175-50.124 0-57.684l-5.368.774z" fill="#fff"/><path d="M374.466 164.916c.656.238 2.565.953 4.891.298 2.803-.715 4.235-2.798 4.593-3.334" stroke="#000" stroke-width="2" stroke-miterlimit="10" stroke-linecap="round" stroke-linejoin="round"/><path d="M419.201 157.713l-14.315-36.848-27.02 3.869c-12.288 25.121-9.007 50.362 1.252 55.719 8.291 4.286 20.519-3.274 23.74-5.298" stroke="#000" stroke-width="2" stroke-miterlimit="10" stroke-linecap="round" stroke-linejoin="round"/><path d="M373.512 147.653c-6.382.595-10.319 2.143-10.319 3.631 0 2.024 4.473 3.334 10.856 3.334" fill="#fff"/><path d="M373.512 147.653c-6.382.595-10.319 2.143-10.319 3.631 0 2.024 4.473 3.334 10.856 3.334" stroke="#000" stroke-width="2" stroke-miterlimit="10" stroke-linecap="round" stroke-linejoin="round"/><path d="M401.248 150.986c3.877-4.941 7.575-6.905 10.2-4.405 2.922 2.798.059 6.429-1.73 9.346-.895 1.488-.835 3.393.179 4.822 1.431 2.084 3.579 4.584 6.621 6.667 2.505 1.667 4.891 2.679 6.8 3.215 4.115-2.262 12.764-8.156 19.504-19.109 7.874-12.858 8.888-25.776 6.442-30.062-.298 1.131-3.459 7.322-8.171 7.5 2.207-1.964 11.392-19.704 6.382-24.466-3.698 5.536-7.874 7.322-9.782 6.131-1.313-.833-.537-3.333 4.354-7.203-3.818-1.845-47.479-14.7034-64.181 21.252.298 2.024 1.074 4.703 3.281 6.31 4.772 3.513 11.214-1.369 16.105.774 6.442 2.858-2.983 19.228 3.996 19.228z" fill="#000" stroke="#000" stroke-width="2" stroke-miterlimit="10" stroke-linecap="round" stroke-linejoin="round"/><path d="M397.252 208.134c1.551.476 3.221 1.072 4.891 1.786 1.79.714 3.4 1.429 4.891 2.203" stroke="#000" stroke-width="2" stroke-miterlimit="10" stroke-linecap="round" stroke-linejoin="round"/><path d="M392.062 180.453l1.372 9.941c-3.459 8.334-18.013 17.681-13.42 25.538 2.863 4.941 23.739 5.358 48.374-13.989-5.249-6.429-5.428-26.55-5.07-31.312-.776-4.465-1.551-8.93-2.326-13.394" stroke="#000" stroke-width="2" stroke-miterlimit="10" stroke-linecap="round" stroke-linejoin="round"/><path d="M246.344 239.447c-5.13-3.691-7.993-8.096-6.919-11.073.179-.476.477-.952.954-1.488l1.074-.774 4.712-3.453c-13.779-6.726-20.519-10.655-20.042-11.786.477-1.191 9.544 1.012 27.14 6.607 4.294 2.143 8.529 4.346 12.824 6.489" fill="#B680FF"/><path d="M241.989 235.577c-4.473 8.691 22.129 18.573 29.943 28.098l2.923 1.548 15.926-9.882-3.102-8.81c-3.758-4.882-7.038-10.716-11.452-16.311-6.502-8.216-4.235-21.074-7.396-22.264-6.383-2.382-5.548 13.691-4.772 17.025" fill="#B680FF"/><path d="M246.344 231.291c-5.786-3.215-11.214-10.418-5.19-11.013l10.2-.714-.298 6.548" fill="#B680FF"/><path d="M263.94 225.577c-.418-2.798.835-14.466 6.442-15.18-.06-.239-.179-2.382-1.551-2.56-5.667-.893-5.726 9.465-5.13 14.763l-10.617-5.655c-4.175-2.262-19.743-7.382-23.799-8.751-.716-.238-1.432-.298-2.148-.06-1.491.477-1.67 2.382-.358 3.751.657.655 2.744 2.143 2.744 2.143 2.207-5.001 26.066 7.858 34.417 11.549z" fill="#fff"/><path d="M263.403 222.66s-30.063-15.835-36.326-14.525c-1.55.298-1.67 2.381-.357 3.75 3.996 3.989 17.238 9.704 20.22 11.311M253.621 224.862c-.776 2.083-1.611 5.06-1.909 8.631-.298 3.929.179 7.263.716 9.525M246.344 231.291c-5.786-3.215-11.214-10.418-5.19-11.013M246.343 239.447c-5.129-3.691-7.992-8.096-6.919-11.073.179-.476.477-.952.955-1.488" stroke="#000" stroke-width="2" stroke-miterlimit="10" stroke-linecap="round" stroke-linejoin="round"/><path d="M274.795 265.163l-2.922-1.548c-7.814-9.524-34.417-19.406-29.943-28.097" stroke="#000" stroke-width="2" stroke-miterlimit="10" stroke-linecap="round" stroke-linejoin="round"/><path d="M400.354 231.291c-18.073 18.335-31.494 44.468-61.199 43.456-20.638-.714-46.226-24.288-53.802-31.312 4.295 5.238-11.213 23.573-15.747 17.799 3.102 5.417 10.2 15.12 17.119 22.621 11.274 12.263 23.561 20.538 30.719 23.574 35.55 15.061 81.836-2.5 109.691-41.373 17.835-24.824 10.916-51.969 1.313-64.113" fill="#000"/><path d="M400.354 231.291c-18.073 18.335-31.494 44.468-61.199 43.456-20.638-.714-46.226-24.288-53.802-31.312 4.295 5.238-11.213 23.573-15.747 17.799 3.102 5.417 10.2 15.12 17.119 22.621 11.274 12.263 23.561 20.538 30.719 23.574 35.55 15.061 81.836-2.5 109.691-41.373 17.835-24.824 10.916-51.969 1.313-64.113" stroke="#000" stroke-width="2" stroke-miterlimit="10" stroke-linecap="round" stroke-linejoin="round"/><path d="M316.907 309.036c40.023 14.882 88.159-6.667 114.165-46.076M397.252 234.624c-18.074 18.335-30.719 41.671-61.318 38.278M276.585 272.068c9.663 2.858 22.308-12.62 20.28-20.121" stroke="#B680FF" stroke-width="2" stroke-miterlimit="10" stroke-linecap="round" stroke-linejoin="round"/><path d="M287.62 246.471c-3.758-4.881-7.039-10.715-11.452-16.311-6.502-8.215-4.235-21.073-7.397-22.264-6.382-2.381-5.547 13.692-4.772 17.025" stroke="#000" stroke-width="2" stroke-miterlimit="10" stroke-linecap="round" stroke-linejoin="round"/></svg>
